<mxfile host="app.diagrams.net" modified="2022-12-13T03:23:59.229Z" agent="5.0 (Windows NT 10.0; Win64; x64) AppleWebKit/537.36 (KHTML, like Gecko) Chrome/108.0.0.0 Safari/537.36" version="20.6.2" etag="m0abuMdL0vZx1mf6KHmZ" type="github">
  <diagram id="abNzKJLqWQID4t4JEP3C" name="第 1 页">
    <mxGraphModel dx="2249" dy="786" grid="1" gridSize="10" guides="1" tooltips="1" connect="1" arrows="1" fold="1" page="1" pageScale="1" pageWidth="827" pageHeight="1169" math="0" shadow="0">
      <root>
        <mxCell id="0" />
        <mxCell id="1" parent="0" />
        <mxCell id="cqH3TrxhOupi_7AMvYz1-10" value="日计划" style="rounded=0;whiteSpace=wrap;html=1;" vertex="1" parent="1">
          <mxGeometry x="-230" y="250" width="120" height="60" as="geometry" />
        </mxCell>
        <mxCell id="cqH3TrxhOupi_7AMvYz1-11" value="项目计划" style="rounded=0;whiteSpace=wrap;html=1;" vertex="1" parent="1">
          <mxGeometry x="314" y="50" width="120" height="60" as="geometry" />
        </mxCell>
        <mxCell id="cqH3TrxhOupi_7AMvYz1-12" value="项目计划变更" style="rounded=0;whiteSpace=wrap;html=1;" vertex="1" parent="1">
          <mxGeometry x="680" y="50" width="120" height="60" as="geometry" />
        </mxCell>
        <mxCell id="cqH3TrxhOupi_7AMvYz1-13" value="项目计划明细" style="rounded=0;whiteSpace=wrap;html=1;" vertex="1" parent="1">
          <mxGeometry x="40" y="250" width="120" height="60" as="geometry" />
        </mxCell>
        <mxCell id="cqH3TrxhOupi_7AMvYz1-15" value="发起" style="rhombus;whiteSpace=wrap;html=1;" vertex="1" parent="1">
          <mxGeometry x="520" y="40" width="80" height="80" as="geometry" />
        </mxCell>
        <mxCell id="cqH3TrxhOupi_7AMvYz1-16" value="" style="endArrow=none;html=1;rounded=0;exitX=1;exitY=0.5;exitDx=0;exitDy=0;" edge="1" parent="1" source="cqH3TrxhOupi_7AMvYz1-11" target="cqH3TrxhOupi_7AMvYz1-15">
          <mxGeometry width="50" height="50" relative="1" as="geometry">
            <mxPoint x="710" y="350" as="sourcePoint" />
            <mxPoint x="760" y="300" as="targetPoint" />
          </mxGeometry>
        </mxCell>
        <mxCell id="cqH3TrxhOupi_7AMvYz1-17" value="" style="endArrow=none;html=1;rounded=0;exitX=1;exitY=0.5;exitDx=0;exitDy=0;entryX=0;entryY=0.5;entryDx=0;entryDy=0;" edge="1" parent="1" source="cqH3TrxhOupi_7AMvYz1-15" target="cqH3TrxhOupi_7AMvYz1-12">
          <mxGeometry width="50" height="50" relative="1" as="geometry">
            <mxPoint x="670" y="240" as="sourcePoint" />
            <mxPoint x="720" y="190" as="targetPoint" />
          </mxGeometry>
        </mxCell>
        <mxCell id="cqH3TrxhOupi_7AMvYz1-18" value="项目" style="rounded=0;whiteSpace=wrap;html=1;" vertex="1" parent="1">
          <mxGeometry x="-30" y="50" width="120" height="60" as="geometry" />
        </mxCell>
        <mxCell id="cqH3TrxhOupi_7AMvYz1-19" value="建立" style="rhombus;whiteSpace=wrap;html=1;" vertex="1" parent="1">
          <mxGeometry x="160" y="40" width="80" height="80" as="geometry" />
        </mxCell>
        <mxCell id="cqH3TrxhOupi_7AMvYz1-20" value="" style="endArrow=none;html=1;rounded=0;exitX=1;exitY=0.5;exitDx=0;exitDy=0;entryX=0;entryY=0.5;entryDx=0;entryDy=0;" edge="1" parent="1" source="cqH3TrxhOupi_7AMvYz1-19" target="cqH3TrxhOupi_7AMvYz1-11">
          <mxGeometry width="50" height="50" relative="1" as="geometry">
            <mxPoint x="480" y="230" as="sourcePoint" />
            <mxPoint x="530" y="180" as="targetPoint" />
          </mxGeometry>
        </mxCell>
        <mxCell id="cqH3TrxhOupi_7AMvYz1-21" value="" style="endArrow=none;html=1;rounded=0;exitX=1;exitY=0.5;exitDx=0;exitDy=0;entryX=0;entryY=0.5;entryDx=0;entryDy=0;" edge="1" parent="1" source="cqH3TrxhOupi_7AMvYz1-18" target="cqH3TrxhOupi_7AMvYz1-19">
          <mxGeometry width="50" height="50" relative="1" as="geometry">
            <mxPoint x="110" y="220" as="sourcePoint" />
            <mxPoint x="160" y="170" as="targetPoint" />
          </mxGeometry>
        </mxCell>
        <mxCell id="cqH3TrxhOupi_7AMvYz1-22" value="关联" style="rhombus;whiteSpace=wrap;html=1;" vertex="1" parent="1">
          <mxGeometry x="-80" y="240" width="80" height="80" as="geometry" />
        </mxCell>
        <mxCell id="cqH3TrxhOupi_7AMvYz1-25" value="" style="endArrow=none;html=1;rounded=0;exitX=1;exitY=0.5;exitDx=0;exitDy=0;entryX=0;entryY=0.5;entryDx=0;entryDy=0;" edge="1" parent="1" source="cqH3TrxhOupi_7AMvYz1-22" target="cqH3TrxhOupi_7AMvYz1-13">
          <mxGeometry width="50" height="50" relative="1" as="geometry">
            <mxPoint x="230" y="450" as="sourcePoint" />
            <mxPoint x="310" y="320" as="targetPoint" />
          </mxGeometry>
        </mxCell>
        <mxCell id="cqH3TrxhOupi_7AMvYz1-26" value="" style="endArrow=none;html=1;rounded=0;exitX=1;exitY=0.5;exitDx=0;exitDy=0;entryX=0;entryY=0.5;entryDx=0;entryDy=0;" edge="1" parent="1" source="cqH3TrxhOupi_7AMvYz1-10" target="cqH3TrxhOupi_7AMvYz1-22">
          <mxGeometry width="50" height="50" relative="1" as="geometry">
            <mxPoint x="50" y="490" as="sourcePoint" />
            <mxPoint x="100" y="440" as="targetPoint" />
          </mxGeometry>
        </mxCell>
        <mxCell id="cqH3TrxhOupi_7AMvYz1-27" value="1" style="text;html=1;strokeColor=none;fillColor=none;align=center;verticalAlign=middle;whiteSpace=wrap;rounded=0;" vertex="1" parent="1">
          <mxGeometry x="100" y="50" width="60" height="30" as="geometry" />
        </mxCell>
        <mxCell id="cqH3TrxhOupi_7AMvYz1-28" value="1" style="text;html=1;strokeColor=none;fillColor=none;align=center;verticalAlign=middle;whiteSpace=wrap;rounded=0;" vertex="1" parent="1">
          <mxGeometry x="250" y="50" width="60" height="30" as="geometry" />
        </mxCell>
        <mxCell id="cqH3TrxhOupi_7AMvYz1-29" value="1" style="text;html=1;strokeColor=none;fillColor=none;align=center;verticalAlign=middle;whiteSpace=wrap;rounded=0;" vertex="1" parent="1">
          <mxGeometry x="450" y="50" width="60" height="30" as="geometry" />
        </mxCell>
        <mxCell id="cqH3TrxhOupi_7AMvYz1-30" value="N" style="text;html=1;strokeColor=none;fillColor=none;align=center;verticalAlign=middle;whiteSpace=wrap;rounded=0;" vertex="1" parent="1">
          <mxGeometry x="610" y="50" width="60" height="30" as="geometry" />
        </mxCell>
        <mxCell id="cqH3TrxhOupi_7AMvYz1-36" value="N" style="text;html=1;strokeColor=none;fillColor=none;align=center;verticalAlign=middle;whiteSpace=wrap;rounded=0;" vertex="1" parent="1">
          <mxGeometry x="354" y="220" width="60" height="30" as="geometry" />
        </mxCell>
        <mxCell id="cqH3TrxhOupi_7AMvYz1-37" value="项目计划科目" style="rounded=0;whiteSpace=wrap;html=1;" vertex="1" parent="1">
          <mxGeometry x="330" y="250" width="120" height="60" as="geometry" />
        </mxCell>
        <mxCell id="cqH3TrxhOupi_7AMvYz1-39" value="包含" style="rhombus;whiteSpace=wrap;html=1;" vertex="1" parent="1">
          <mxGeometry x="340" y="145" width="70" height="70" as="geometry" />
        </mxCell>
        <mxCell id="cqH3TrxhOupi_7AMvYz1-42" value="" style="endArrow=none;html=1;rounded=0;exitX=0.5;exitY=1;exitDx=0;exitDy=0;entryX=0.5;entryY=0;entryDx=0;entryDy=0;" edge="1" parent="1" source="cqH3TrxhOupi_7AMvYz1-11" target="cqH3TrxhOupi_7AMvYz1-39">
          <mxGeometry width="50" height="50" relative="1" as="geometry">
            <mxPoint x="370" y="280" as="sourcePoint" />
            <mxPoint x="420" y="230" as="targetPoint" />
          </mxGeometry>
        </mxCell>
        <mxCell id="cqH3TrxhOupi_7AMvYz1-46" value="1" style="text;html=1;strokeColor=none;fillColor=none;align=center;verticalAlign=middle;whiteSpace=wrap;rounded=0;" vertex="1" parent="1">
          <mxGeometry x="350" y="115" width="60" height="30" as="geometry" />
        </mxCell>
        <mxCell id="cqH3TrxhOupi_7AMvYz1-48" value="变电站" style="ellipse;whiteSpace=wrap;html=1;" vertex="1" parent="1">
          <mxGeometry x="520" y="180" width="90" height="60" as="geometry" />
        </mxCell>
        <mxCell id="cqH3TrxhOupi_7AMvYz1-49" value="架空线路" style="ellipse;whiteSpace=wrap;html=1;" vertex="1" parent="1">
          <mxGeometry x="520" y="270" width="90" height="60" as="geometry" />
        </mxCell>
        <mxCell id="cqH3TrxhOupi_7AMvYz1-50" value="" style="endArrow=none;html=1;rounded=0;exitX=1;exitY=0.5;exitDx=0;exitDy=0;entryX=0;entryY=0.5;entryDx=0;entryDy=0;" edge="1" parent="1" source="cqH3TrxhOupi_7AMvYz1-37" target="cqH3TrxhOupi_7AMvYz1-48">
          <mxGeometry width="50" height="50" relative="1" as="geometry">
            <mxPoint x="560" y="390" as="sourcePoint" />
            <mxPoint x="610" y="340" as="targetPoint" />
          </mxGeometry>
        </mxCell>
        <mxCell id="cqH3TrxhOupi_7AMvYz1-51" value="" style="endArrow=none;html=1;rounded=0;exitX=1;exitY=0.5;exitDx=0;exitDy=0;entryX=0.044;entryY=0.317;entryDx=0;entryDy=0;entryPerimeter=0;" edge="1" parent="1" source="cqH3TrxhOupi_7AMvYz1-37" target="cqH3TrxhOupi_7AMvYz1-49">
          <mxGeometry width="50" height="50" relative="1" as="geometry">
            <mxPoint x="680" y="420" as="sourcePoint" />
            <mxPoint x="730" y="370" as="targetPoint" />
          </mxGeometry>
        </mxCell>
        <mxCell id="cqH3TrxhOupi_7AMvYz1-55" value="包含" style="rhombus;whiteSpace=wrap;html=1;" vertex="1" parent="1">
          <mxGeometry x="200" y="240" width="80" height="80" as="geometry" />
        </mxCell>
        <mxCell id="cqH3TrxhOupi_7AMvYz1-58" value="" style="endArrow=none;html=1;rounded=0;exitX=1;exitY=0.5;exitDx=0;exitDy=0;entryX=0;entryY=0.5;entryDx=0;entryDy=0;" edge="1" parent="1" source="cqH3TrxhOupi_7AMvYz1-55" target="cqH3TrxhOupi_7AMvYz1-37">
          <mxGeometry width="50" height="50" relative="1" as="geometry">
            <mxPoint x="410" y="450" as="sourcePoint" />
            <mxPoint x="460" y="400" as="targetPoint" />
          </mxGeometry>
        </mxCell>
        <mxCell id="cqH3TrxhOupi_7AMvYz1-59" value="" style="endArrow=none;html=1;rounded=0;exitX=1;exitY=0.5;exitDx=0;exitDy=0;entryX=0;entryY=0.5;entryDx=0;entryDy=0;" edge="1" parent="1" source="cqH3TrxhOupi_7AMvYz1-13" target="cqH3TrxhOupi_7AMvYz1-55">
          <mxGeometry width="50" height="50" relative="1" as="geometry">
            <mxPoint x="410" y="430" as="sourcePoint" />
            <mxPoint x="460" y="380" as="targetPoint" />
          </mxGeometry>
        </mxCell>
        <mxCell id="cqH3TrxhOupi_7AMvYz1-63" value="" style="endArrow=none;html=1;rounded=0;exitX=0.5;exitY=1;exitDx=0;exitDy=0;entryX=0.383;entryY=0.033;entryDx=0;entryDy=0;entryPerimeter=0;" edge="1" parent="1" source="cqH3TrxhOupi_7AMvYz1-39" target="cqH3TrxhOupi_7AMvYz1-37">
          <mxGeometry width="50" height="50" relative="1" as="geometry">
            <mxPoint x="440" y="190" as="sourcePoint" />
            <mxPoint x="490" y="140" as="targetPoint" />
          </mxGeometry>
        </mxCell>
        <mxCell id="cqH3TrxhOupi_7AMvYz1-64" value="1" style="text;html=1;strokeColor=none;fillColor=none;align=center;verticalAlign=middle;whiteSpace=wrap;rounded=0;" vertex="1" parent="1">
          <mxGeometry x="280" y="250" width="60" height="30" as="geometry" />
        </mxCell>
        <mxCell id="cqH3TrxhOupi_7AMvYz1-65" value="N" style="text;html=1;strokeColor=none;fillColor=none;align=center;verticalAlign=middle;whiteSpace=wrap;rounded=0;" vertex="1" parent="1">
          <mxGeometry x="150" y="250" width="60" height="30" as="geometry" />
        </mxCell>
        <mxCell id="cqH3TrxhOupi_7AMvYz1-66" value="1" style="text;html=1;strokeColor=none;fillColor=none;align=center;verticalAlign=middle;whiteSpace=wrap;rounded=0;" vertex="1" parent="1">
          <mxGeometry x="-20" y="250" width="60" height="30" as="geometry" />
        </mxCell>
        <mxCell id="cqH3TrxhOupi_7AMvYz1-67" value="1" style="text;html=1;strokeColor=none;fillColor=none;align=center;verticalAlign=middle;whiteSpace=wrap;rounded=0;" vertex="1" parent="1">
          <mxGeometry x="-120" y="250" width="60" height="30" as="geometry" />
        </mxCell>
        <mxCell id="cqH3TrxhOupi_7AMvYz1-96" value="Pool" style="swimlane;childLayout=stackLayout;resizeParent=1;resizeParentMax=0;horizontal=1;startSize=20;horizontalStack=0;html=1;" vertex="1" parent="1">
          <mxGeometry x="-35" y="360" width="675" height="380" as="geometry" />
        </mxCell>
        <mxCell id="cqH3TrxhOupi_7AMvYz1-97" value="施工单位用户" style="swimlane;startSize=20;horizontal=0;html=1;" vertex="1" parent="cqH3TrxhOupi_7AMvYz1-96">
          <mxGeometry y="20" width="675" height="120" as="geometry" />
        </mxCell>
        <mxCell id="cqH3TrxhOupi_7AMvYz1-73" value="项目A的计划变更" style="rounded=0;whiteSpace=wrap;html=1;" vertex="1" parent="cqH3TrxhOupi_7AMvYz1-97">
          <mxGeometry x="30" y="30" width="120" height="60" as="geometry" />
        </mxCell>
        <mxCell id="cqH3TrxhOupi_7AMvYz1-86" value="审批完成" style="rounded=0;whiteSpace=wrap;html=1;" vertex="1" parent="cqH3TrxhOupi_7AMvYz1-97">
          <mxGeometry x="230" y="30" width="120" height="60" as="geometry" />
        </mxCell>
        <mxCell id="cqH3TrxhOupi_7AMvYz1-87" value="删除项目A的明细a" style="rounded=0;whiteSpace=wrap;html=1;" vertex="1" parent="cqH3TrxhOupi_7AMvYz1-97">
          <mxGeometry x="445" y="30" width="120" height="60" as="geometry" />
        </mxCell>
        <mxCell id="cqH3TrxhOupi_7AMvYz1-98" value="施工单位用户" style="swimlane;startSize=20;horizontal=0;html=1;" vertex="1" parent="cqH3TrxhOupi_7AMvYz1-96">
          <mxGeometry y="140" width="675" height="120" as="geometry" />
        </mxCell>
        <mxCell id="cqH3TrxhOupi_7AMvYz1-74" value="修改项目A的计划" style="rounded=0;whiteSpace=wrap;html=1;" vertex="1" parent="cqH3TrxhOupi_7AMvYz1-98">
          <mxGeometry x="120" y="30" width="120" height="60" as="geometry" />
        </mxCell>
        <mxCell id="cqH3TrxhOupi_7AMvYz1-100" value="提交上报" style="rounded=0;whiteSpace=wrap;html=1;" vertex="1" parent="cqH3TrxhOupi_7AMvYz1-98">
          <mxGeometry x="345" y="30" width="120" height="60" as="geometry" />
        </mxCell>
        <mxCell id="cqH3TrxhOupi_7AMvYz1-101" value="施工单位用户" style="swimlane;startSize=20;horizontal=0;html=1;" vertex="1" parent="cqH3TrxhOupi_7AMvYz1-96">
          <mxGeometry y="260" width="675" height="120" as="geometry" />
        </mxCell>
        <mxCell id="cqH3TrxhOupi_7AMvYz1-102" value="日计划关联项目A的计划明细a" style="rounded=0;whiteSpace=wrap;html=1;" vertex="1" parent="cqH3TrxhOupi_7AMvYz1-101">
          <mxGeometry x="120" y="30" width="120" height="60" as="geometry" />
        </mxCell>
        <mxCell id="cqH3TrxhOupi_7AMvYz1-103" value="保存日计划" style="rounded=0;whiteSpace=wrap;html=1;" vertex="1" parent="cqH3TrxhOupi_7AMvYz1-101">
          <mxGeometry x="505" y="30" width="120" height="60" as="geometry" />
        </mxCell>
        <mxCell id="cqH3TrxhOupi_7AMvYz1-105" value="状态(保存/提交/推送)" style="ellipse;whiteSpace=wrap;html=1;" vertex="1" parent="1">
          <mxGeometry x="-240" y="145" width="120" height="55" as="geometry" />
        </mxCell>
        <mxCell id="cqH3TrxhOupi_7AMvYz1-107" value="" style="endArrow=none;html=1;rounded=0;exitX=0.5;exitY=0;exitDx=0;exitDy=0;entryX=0.5;entryY=1;entryDx=0;entryDy=0;" edge="1" parent="1" source="cqH3TrxhOupi_7AMvYz1-10" target="cqH3TrxhOupi_7AMvYz1-105">
          <mxGeometry width="50" height="50" relative="1" as="geometry">
            <mxPoint x="-130" y="180" as="sourcePoint" />
            <mxPoint x="-80" y="130" as="targetPoint" />
          </mxGeometry>
        </mxCell>
        <mxCell id="cqH3TrxhOupi_7AMvYz1-110" value="工程量" style="ellipse;whiteSpace=wrap;html=1;" vertex="1" parent="1">
          <mxGeometry x="40" y="160" width="80" height="55" as="geometry" />
        </mxCell>
        <mxCell id="cqH3TrxhOupi_7AMvYz1-111" value="" style="endArrow=none;html=1;rounded=0;exitX=0.5;exitY=0;exitDx=0;exitDy=0;entryX=0.5;entryY=1;entryDx=0;entryDy=0;" edge="1" parent="1" source="cqH3TrxhOupi_7AMvYz1-13" target="cqH3TrxhOupi_7AMvYz1-110">
          <mxGeometry width="50" height="50" relative="1" as="geometry">
            <mxPoint x="160" y="210" as="sourcePoint" />
            <mxPoint x="210" y="160" as="targetPoint" />
          </mxGeometry>
        </mxCell>
        <mxCell id="cqH3TrxhOupi_7AMvYz1-112" value="变更原因" style="ellipse;whiteSpace=wrap;html=1;" vertex="1" parent="1">
          <mxGeometry x="660" y="145" width="80" height="47" as="geometry" />
        </mxCell>
        <mxCell id="cqH3TrxhOupi_7AMvYz1-113" value="" style="endArrow=none;html=1;rounded=0;exitX=0.5;exitY=1;exitDx=0;exitDy=0;entryX=0.5;entryY=0;entryDx=0;entryDy=0;" edge="1" parent="1" source="cqH3TrxhOupi_7AMvYz1-12" target="cqH3TrxhOupi_7AMvYz1-112">
          <mxGeometry width="50" height="50" relative="1" as="geometry">
            <mxPoint x="740" y="310" as="sourcePoint" />
            <mxPoint x="790" y="260" as="targetPoint" />
          </mxGeometry>
        </mxCell>
      </root>
    </mxGraphModel>
  </diagram>
</mxfile>
